<?xml version="1.0" encoding="UTF-8" standalone="no"?>
<svg
   xmlns:dc="http://purl.org/dc/elements/1.1/"
   xmlns:cc="http://creativecommons.org/ns#"
   xmlns:rdf="http://www.w3.org/1999/02/22-rdf-syntax-ns#"
   xmlns:svg="http://www.w3.org/2000/svg"
   xmlns="http://www.w3.org/2000/svg"
   xmlns:xlink="http://www.w3.org/1999/xlink"
   id="svg28"
   version="1.1"
   viewBox="0 0 209 209"
   height="32"
   width="92">
  <metadata
     id="metadata32">
    <rdf:RDF>
      <cc:Work
         rdf:about="">
        <dc:format>image/svg+xml</dc:format>
        <dc:type
           rdf:resource="http://purl.org/dc/dcmitype/StillImage" />
        <dc:title>8AC1DF58-A8D1-462C-97E9-9469215BE30F</dc:title>
      </cc:Work>
    </rdf:RDF>
  </metadata>
  <!-- Generator: sketchtool 52.5 (67469) - http://www.bohemiancoding.com/sketch -->
  <title
     id="title2">8AC1DF58-A8D1-462C-97E9-9469215BE30F</title>
  <desc
     id="desc4">Created with sketchtool.</desc>
  <defs
     id="defs7">
    <polygon
       points="197.05714,1.0947468e-014 197.05714,197.05714 0,197.05714 0,1.0947468e-014 "
       id="path-1" />
  </defs>
  <g
     transform="translate(-29,-27)"
     style="fill:none;fill-rule:evenodd;stroke:none;stroke-width:1"
     id="1.0-Homepage-">
    <g
       transform="translate(-453,-859)"
       id="(2560)-01a---Home-">
      <g
         transform="translate(482,886)"
         id="logo-mark">
        <circle
           style="fill:#ffffff"
           r="104.5"
           cy="104.5"
           cx="104.5"
           id="Oval" />
        <g
           style="stroke-width:1"
           transform="translate(5.971429,5.971429)"
           id="Group-20">
          <g
             id="Group-3">
            <mask
               fill="white"
               id="mask-2">
              <use
                 height="100%"
                 width="100%"
                 y="0"
                 x="0"
                 id="use10"
                 xlink:href="#path-1" />
            </mask>
            <g
               id="Clip-2" />
            <path
               style="fill:#008353"
               mask="url(#mask-2)"
               id="Fill-1"
               d="m 98.528263,191.5197 c -51.169242,0 -92.6549557,-41.47949 -92.6549557,-92.651847 0,-51.172355 41.4857137,-92.6518437 92.6549557,-92.6518437 51.169247,0 92.654957,41.4794887 92.654957,92.6518437 0,51.172357 -41.48571,92.651847 -92.654957,92.651847 M 98.528263,0 C 44.112503,0 -3.0790179e-4,44.115923 -3.0790179e-4,98.528571 c 0,54.415759 44.11281090179,98.528569 98.52857090179,98.528569 54.415757,0 98.528567,-44.11281 98.528567,-98.528569 C 197.05683,44.115923 152.94402,0 98.528263,0" />
          </g>
          <path
             style="fill:#008353"
             id="Fill-4"
             d="m 69.296849,137.26567 -19.461014,9.76468 9.773925,-19.46182 c -4.222824,-5.62531 -7.255668,-12.18977 -8.725455,-19.32674 L 20.9,98.528571 c 0,42.870039 34.757094,77.628569 77.628571,77.628569 l -9.773925,-30.11098 c -7.191344,-1.46663 -13.803779,-4.52212 -19.457797,-8.78049" />
          <path
             style="fill:#008353"
             id="Fill-6"
             d="m 127.75186,59.498794 19.42322,-9.755033 -9.75182,19.429657 c 4.26482,5.670334 7.3203,12.302341 8.7805,19.510065 l 29.95338,9.845088 C 176.15714,55.655318 141.40182,20.9 98.528571,20.9 l 9.471999,29.770055 c 7.30421,1.444118 14.01984,4.515683 19.75129,8.828739" />
          <path
             style="fill:#008353"
             id="Fill-8"
             d="m 59.63549,69.179851 -9.751412,-19.43609 19.422419,9.755033 C 74.934786,55.259713 81.515059,52.217095 88.66781,50.74403 L 98.528571,20.9 C 55.657094,20.9 20.9,55.655318 20.9,98.528571 l 29.932846,-9.716436 c 1.447275,-7.255969 4.515496,-13.929787 8.802644,-19.632284" />
          <path
             style="fill:#008353"
             id="Fill-10"
             d="m 146.19733,108.11314 c -1.4602,7.18521 -4.50282,13.80114 -8.75155,19.4586 l 9.77754,19.46182 -19.46181,-9.76789 c -5.66391,4.26481 -12.28305,7.32029 -19.48112,8.78692 l -9.751819,30.10455 c 42.873249,0 77.628569,-34.75532 77.628569,-77.628569 z" />
          <path
             style="fill:#84c346"
             id="Fill-12"
             d="m 21.606427,98.528571 h -9.66357 c 0.571772,47.570149 39.015565,86.010799 86.585714,86.585719 v -9.66357 C 56.292864,174.87894 22.178199,140.76428 21.606427,98.528571" />
          <path
             style="fill:#84c346"
             id="Fill-14"
             d="m 98.528571,21.606427 v -9.66357 C 50.958422,12.514629 12.51777,50.95528 11.942857,98.528571 h 9.66357 C 22.178199,56.292864 56.292864,22.178199 98.528571,21.606427" />
          <path
             style="fill:#84c346"
             id="Fill-16"
             d="m 98.528571,175.45072 v 9.66357 c 47.570149,-0.57178 86.010799,-39.01557 86.585719,-86.585719 h -9.66357 c -0.57178,42.235709 -34.68644,76.350369 -76.922149,76.922149" />
          <path
             style="fill:#84c346"
             id="Fill-18"
             d="m 175.45072,98.528571 h 9.66357 C 184.53937,50.95528 146.09872,12.51777 98.528571,11.942857 v 9.66357 c 42.235709,0.571772 76.350369,34.686437 76.922149,76.922144" />
        </g>
      </g>
    </g>
  </g>
</svg>
